<svg width="594" height="231" viewBox="0 0 594 231" fill="none" xmlns="http://www.w3.org/2000/svg">
<path d="M214.337 193.838V75.356C214.337 72.4305 215.382 70.0901 217.474 68.3348C219.714 66.3847 222.552 65.4093 225.987 65.4093C229.423 65.4093 232.26 66.3847 234.501 68.3348C236.741 70.0901 237.862 72.4305 237.862 75.356V193.838C237.862 196.373 236.666 198.714 234.277 200.859C232.036 203.005 229.273 204.077 225.987 204.077C222.701 204.077 219.938 203.005 217.698 200.859C215.457 198.714 214.337 196.373 214.337 193.838Z" fill="white"/>
<path d="M105.862 167.448V192.304M116.317 163.524V192.304M126.773 159.599V192.304M158.139 145.209V192.304M168.595 138.668V192.304M179.05 130.819V192.304M189.505 121.662V192.304M199.961 109.888V192.304M210.416 96.8061V192.304M220.872 82.416V192.304M231.327 79.7996V192.304M241.782 91.5733V192.304M252.238 102.039V192.304M262.693 111.196V192.304M273.149 119.045V192.304M84.9511 173.989V192.304M95.4065 171.373V192.304M64.0403 179.222V192.304M74.4957 176.606V192.304M43.1294 184.455V192.304M53.5848 181.838V192.304M22.2185 188.379V192.304M32.674 185.763V192.304M283.604 126.894V192.304M294.06 133.435V192.304M304.515 139.976V192.304M314.97 145.209V192.304M325.426 149.134V192.304M335.881 153.058V192.304M346.337 156.983V192.304M356.792 159.599V192.304M367.248 162.216V192.304M377.703 164.832V192.304M388.158 167.448V192.304M398.614 170.065V192.304M409.069 171.373V192.304M419.525 172.681V192.304M429.98 173.989V192.304M440.436 175.297V192.304M450.891 176.606V192.304M461.346 177.914V192.304M471.802 179.222V192.304M482.257 180.53V192.304M492.713 181.838V192.304M503.168 181.838V192.304M513.624 183.147V192.304M524.079 184.455V192.304M534.534 185.763V192.304M544.99 187.071V192.304M555.445 188.379V192.304M565.901 189.687V192.304M137.228 155.675V192.304M147.684 150.442V192.304M2.61462 192.304C126.807 168.835 183.55 147.64 226.099 73.2587C318.606 187.52 431.202 168.233 589.425 192.304" stroke="white" stroke-width="3"/>
<path d="M0 192.529C0 188.814 4.21667 185.802 9.41818 185.802H583.927C589.131 185.802 593.346 188.814 593.346 192.529V202.621C593.346 206.337 589.131 209.349 583.927 209.349H9.41818C4.21666 209.349 0 206.337 0 202.621V192.529Z" fill="white"/>
<path d="M1.41925 170.012V14.1279C1.41925 11.6162 2.51803 9.65387 4.71561 8.24103C6.91319 6.67122 9.50319 5.88629 12.4856 5.88629H55.3382C69.7795 5.88629 81.3168 8.86895 89.95 14.8343C98.5831 20.7997 102.9 31.396 102.9 46.6233C102.9 66.089 96.2286 78.8046 82.8863 84.7701C90.8918 87.9099 96.9349 92.462 101.016 98.4275C105.098 104.236 107.138 112.791 107.138 124.094V128.568C107.138 145.836 102.9 158.395 94.4236 166.244C85.9472 174.093 74.5668 178.018 60.2827 178.018H12.4856C9.18923 178.018 6.52074 177.233 4.48015 175.663C2.43955 174.093 1.41925 172.21 1.41925 170.012ZM26.1419 155.883H55.5737C73.3114 155.883 82.18 146.15 82.18 126.684V122.917C82.18 112.87 79.9041 105.649 75.3518 101.253C70.9568 96.8579 64.3641 94.66 55.5737 94.66H26.1419V155.883ZM26.1419 74.8801H54.1609C70.015 74.8801 77.9418 66.7954 77.9418 50.6263C77.9418 35.556 69.8577 28.0208 53.69 28.0208H26.1419V74.8801Z" fill="white"/>
<path d="M128.969 169.777V74.4096C128.969 72.0548 130.068 70.171 132.265 68.7582C134.619 67.1885 137.523 66.4034 140.977 66.4034C144.116 66.4034 146.785 67.1885 148.982 68.7582C151.18 70.171 152.278 72.0548 152.278 74.4096V84.7704C154.947 79.2759 158.95 74.645 164.287 70.8775C169.781 66.953 175.746 64.9906 182.181 64.9906H189.716C192.227 64.9906 194.425 66.0893 196.308 68.2872C198.192 70.3279 199.134 72.8399 199.134 75.8224C199.134 78.8049 198.192 81.3951 196.308 83.593C194.425 85.791 192.227 86.8897 189.716 86.8897H182.181C174.646 86.8897 167.976 90.1077 162.167 96.5441C156.517 102.981 153.691 111.3 153.691 121.504V169.777C153.691 171.817 152.436 173.701 149.924 175.428C147.413 177.155 144.43 178.018 140.977 178.018C137.523 178.018 134.619 177.155 132.265 175.428C130.068 173.701 128.969 171.817 128.969 169.777Z" fill="white"/>
<path d="M260.162 133.043V111.379C260.162 98.6636 264.244 87.7531 272.406 78.6483C280.725 69.5435 290.693 64.9908 302.309 64.9908C309.215 64.9908 315.337 66.7178 320.674 70.1712C326.011 73.6247 330.092 77.8632 332.918 82.8868V8.00611C332.918 5.65137 334.095 3.76758 336.45 2.35474C338.804 0.784915 341.786 0 345.397 0C349.007 0 351.911 0.784915 354.109 2.35474C356.463 3.76758 357.64 5.65137 357.64 8.00611V169.777C357.64 171.817 356.463 173.701 354.109 175.428C351.754 177.155 348.85 178.018 345.397 178.018C342.414 178.018 339.746 177.155 337.391 175.428C335.194 173.701 334.095 171.817 334.095 169.777V161.535C331.584 166.559 327.267 170.875 321.145 174.486C315.18 178.097 308.666 179.902 301.602 179.902C290.615 179.902 280.961 175.193 272.641 165.774C264.322 156.198 260.162 145.287 260.162 133.043ZM284.885 133.043C284.885 139.479 287.24 145.287 291.949 150.468C296.658 155.491 302.23 158.003 308.666 158.003C314.788 158.003 320.36 155.648 325.383 150.939C330.406 146.072 332.918 141.912 332.918 138.459V111.379C332.918 104.158 330.484 98.2713 325.619 93.7186C320.753 89.166 315.18 86.8899 308.901 86.8899C302.465 86.8899 296.814 89.4014 291.949 94.425C287.24 99.4486 284.885 105.1 284.885 111.379V133.043Z" fill="white"/>
<path d="M375.261 198.505C375.261 187.516 381.304 179.117 393.391 173.309C386.013 170.169 382.325 164.989 382.325 157.768C382.325 150.86 386.249 144.895 394.098 139.872C384.836 132.651 380.206 122.761 380.206 110.202V103.609C380.206 92.3058 384.208 83.0437 392.214 75.8227C400.376 68.6016 410.972 64.9909 424 64.9909C434.988 64.9909 444.092 67.6597 451.313 72.997C455.865 62.4793 460.967 57.2202 466.618 57.2202C469.6 57.2202 472.032 58.1621 473.916 60.0459C475.799 61.7729 476.741 63.6567 476.741 65.6973C476.741 68.2088 475.409 70.1713 472.738 71.5841C467.717 73.782 463.793 76.9214 460.967 81.0031C465.99 87.2822 468.502 94.8174 468.502 103.609V110.202C468.502 121.505 464.342 130.845 456.023 138.223C447.703 145.602 437.029 149.291 424 149.291C417.879 149.291 412.463 148.349 407.754 146.465C404.771 148.505 403.28 150.703 403.28 153.058C403.28 156.198 405.713 158.474 410.579 159.887C415.602 161.3 421.567 162.398 428.474 163.183C435.538 163.969 442.523 165.146 449.43 166.716C456.493 168.128 462.458 171.268 467.324 176.135C472.348 181.001 474.858 187.437 474.858 195.443C474.858 207.217 470.15 216.086 460.732 222.052C451.47 228.017 439.697 231 425.413 231C411.129 231 399.199 228.017 389.624 222.052C380.048 216.244 375.261 208.394 375.261 198.505ZM398.571 195.914C398.571 201.566 401.004 206.04 405.87 209.336C410.893 212.79 417.329 214.517 425.178 214.517C432.869 214.517 439.07 212.868 443.779 209.572C448.488 206.275 450.842 201.801 450.842 196.15C450.842 192.539 449.744 189.478 447.546 186.966C445.348 184.612 442.052 182.806 437.657 181.55C433.419 180.452 429.73 179.667 426.59 179.196C423.608 178.882 419.527 178.568 414.347 178.254C403.829 182.178 398.571 188.065 398.571 195.914ZM404.222 109.966C404.222 116.874 406.027 122.525 409.638 126.921C413.248 131.316 418.192 133.514 424.471 133.514C430.593 133.514 435.459 131.395 439.07 127.156C442.68 122.761 444.485 117.109 444.485 110.202V103.609C444.485 97.0153 442.68 91.5994 439.07 87.3609C435.459 82.9655 430.515 80.7676 424.236 80.7676C418.114 80.7676 413.248 82.9655 409.638 87.3609C406.027 91.5994 404.222 97.0153 404.222 103.609V109.966Z" fill="white"/>
<path d="M488.488 133.043V110.673C488.488 98.2711 493.273 87.5961 502.851 78.6481C512.425 69.5433 523.962 64.9906 537.463 64.9906C550.333 64.9906 561.32 69.1505 570.427 77.4707C579.685 85.6337 584.319 95.9945 584.319 108.553C584.319 113.263 583.768 117.109 582.671 120.092C581.569 122.917 579.845 124.958 577.491 126.214C575.136 127.313 572.937 128.019 570.898 128.333C568.854 128.647 566.189 128.804 562.892 128.804H513.211V134.22C513.211 142.069 516.037 148.348 521.688 153.058C527.339 157.611 534.713 159.887 543.82 159.887C550.253 159.887 556.3 158.395 561.951 155.413C567.757 152.43 571.289 150.939 572.546 150.939C575.212 150.939 577.491 152.195 579.374 154.706C581.258 157.218 582.2 159.651 582.2 162.006C582.2 165.93 578.433 169.933 570.898 174.015C563.363 177.939 554.1 179.902 543.114 179.902C527.103 179.902 513.993 175.585 503.793 166.951C493.588 158.317 488.488 147.014 488.488 133.043ZM513.211 113.498H552.297C555.749 113.498 558.023 113.027 559.125 112.085C560.378 111.143 561.009 109.26 561.009 106.434C561.009 100.155 558.73 94.8172 554.181 90.4218C549.627 86.0264 543.976 83.8285 537.228 83.8285C530.635 83.8285 524.984 85.9478 520.275 90.1863C515.566 94.268 513.211 99.5266 513.211 105.963V113.498Z" fill="white"/>
</svg>
